# xmcd
#
# Track frame offsets:
#	150
#	17418
#	32701
#	51293
#	65928
#	81855
#	105765
#	122584
#	136355
#	151137
#
# Disc length: 2202 seconds
#
# Revision: 0
# Processed by: cddbd v1.4PL0 Copyright (c) Steve Scherf et al.
# Submitted via: EasyCDDAExtractor 4.5.0.2
#
DISCID=7808980a
DTITLE=Antypas - Kala pou hr8es
DYEAR=1900
DGENRE=
TTITLE0=Se goustarw poly
TTITLE1=Kala pou hr8es
TTITLE2=Apopse kaiei to kormi
TTITLE3=Ftanei ws edw
TTITLE4=E3aitias sou
TTITLE5=Den koimamai
TTITLE6=Oti kai na lew
TTITLE7=8elw sth 8esh mou na `r8eis
TTITLE8=An 8es kardia na dwseis
TTITLE9=Egw mporw
EXTD=KLcanilupus©
EXTT0=
EXTT1=
EXTT2=
EXTT3=
EXTT4=
EXTT5=
EXTT6=
EXTT7=
EXTT8=
EXTT9=
PLAYORDER=
